# xmcd
#
# Track frame offsets:
# 150
# 15462
# 29675
# 42407
# 74895
# 90080
# 121427
# 133670
# 169075
# 195405
# 219475
# 235665
# 266657
# 290535
# 314427
#
# Disc length: 4427 seconds
#
# Revision: 0
# Processed by: cddbd v1.4PL0 Copyright (c) Steve Scherf et al.
# Submitted via: Audion 3.0.2 (http://www.panic.com/audion/)
#
DISCID=da11490f
DTITLE=Haydn - Quatuors Wiener Konzethaus 9
DYEAR=1900
DGENRE=
TTITLE0=
TTITLE1=
TTITLE2=
TTITLE3=Op.33-3-1
TTITLE4=
TTITLE5=Op.33-3-3
TTITLE6=Op.33-3-4
TTITLE7=
TTITLE8=
TTITLE9=
TTITLE10=
TTITLE11=
TTITLE12=
TTITLE13=
TTITLE14=
EXTD=
EXTT0=
EXTT1=
EXTT2=
EXTT3=
EXTT4=
EXTT5=
EXTT6=
EXTT7=
EXTT8=
EXTT9=
EXTT10=
EXTT11=
EXTT12=
EXTT13=
EXTT14=
PLAYORDER=
